<?xml version="1.0" standalone="no"?>
<!DOCTYPE svg PUBLIC "-//W3C//DTD SVG 20010904//EN"
 "http://www.w3.org/TR/2001/REC-SVG-20010904/DTD/svg10.dtd">
<svg version="1.0" xmlns="http://www.w3.org/2000/svg"
 width="750.000000pt" height="750.000000pt" viewBox="0 0 750.000000 750.000000"
 preserveAspectRatio="xMidYMid meet">
<metadata>
Created by potrace 1.11, written by Peter Selinger 2001-2013
</metadata>
<g transform="translate(0.000000,750.000000) scale(0.100000,-0.100000)"
fill="#000000" stroke="none">
<path d="M2975 6816 c-50 -28 -209 -119 -363 -207 -18 -11 -63 -37 -100 -58
-37 -21 -256 -146 -487 -278 -231 -132 -433 -248 -450 -257 -16 -9 -37 -21
-45 -26 -17 -12 -449 -258 -530 -303 -30 -17 -82 -46 -115 -66 -33 -20 -77
-45 -97 -55 -20 -11 -45 -27 -57 -35 -20 -16 -20 -22 -23 -1354 l-3 -1339 180
-105 c99 -58 194 -114 211 -124 18 -9 223 -129 455 -265 565 -329 591 -344
600 -344 4 0 157 86 341 191 183 105 351 201 373 214 22 12 63 36 92 53 29 17
54 28 56 24 3 -4 3 -228 2 -498 l-3 -491 726 -423 c712 -414 726 -422 751
-407 14 8 260 149 546 312 286 164 661 378 832 476 172 99 334 192 361 207
430 242 553 317 557 336 3 11 6 617 7 1344 l3 1324 -205 120 c-113 66 -223
130 -245 143 -22 12 -253 147 -514 299 -261 152 -477 276 -480 276 -9 0 -43
-19 -468 -263 -216 -124 -395 -222 -397 -219 -1 4 -2 228 -1 498 l2 491 -723
422 c-397 231 -724 421 -726 421 -2 0 -30 -16 -63 -34z m50 -2143 c-2 -269 -3
-491 -4 -495 -1 -5 -344 -205 -561 -326 -51 -28 -218 -125 -268 -154 l-32 -20
2 499 3 498 170 98 c94 53 181 103 195 111 14 7 70 39 125 71 55 32 125 71
155 88 30 17 69 39 85 49 17 10 37 21 45 25 8 3 17 9 20 13 5 6 51 28 61 29 4
1 6 -218 4 -486z m2313 -1347 l-1 -495 -28 -20 c-16 -12 -30 -21 -32 -21 -4 0
-513 -288 -547 -310 -8 -5 -51 -29 -95 -54 -44 -25 -99 -57 -121 -71 l-42 -25
2 497 2 497 49 29 c28 17 64 37 80 47 108 61 676 386 700 401 17 10 31 18 33
18 1 1 1 -221 0 -493z"/>
</g>
</svg>
